/* XPM */
static char *d3a076c141264f31a3a50a609c070df9hlBh3UQGx63eqxhL[] = {
/* columns rows colors chars-per-pixel */
"120 120 9 1 ",
"  c white",
". c #000001",
"X c #005F00",
"o c #008000",
"O c green",
"+ c #77C465",
"@ c #FFCF93",
"# c #FFE7BF",
"$ c #FFFBF0",
/* pixels */
"++++++++++++++++++++++++++++++++++++++++++++++++++++++++++++++++++++++++++++++++++++++++++++++++++++++++++++++++++++++++",
"++++++++++++++++++++++++++++++++++++++++++++++++++++++++++++++++++++++++++++++++++++++++++++++++++++++++++++++++++++++++",
"++++++++++++++++++++++++++++++++++++++++++++++++++++++++++++++++++++++++++++++++++++++++++++++++++++++++++++++++++++++++",
"++++++++++++++++++++++++++++++++++++++++++++++++++++++++++++++++++++++++++++++++++++++++++++++++++++++++++++++++++++++++",
"+++++++++++++++++++++++++++++++++++++++++++++++++++..................+++++++++++++++++++++++++++++++++++++++++++++++++++",
"+++++++++++++++++++++++++++++++++++++++++++++++++++..................+++++++++++++++++++++++++++++++++++++++++++++++++++",
"+++++++++++++++++++++++++++++++++++++++++++++++++++..................+++++++++++++++++++++++++++++++++++++++++++++++++++",
"+++++++++++++++++++++++++++++++++++++++++++++++++++..................+++++++++++++++++++++++++++++++++++++++++++++++++++",
"+++++++++++++++++++++++++++++++++++++++++......................................+++++++++++++++++++++++++++++++++++++++++",
"+++++++++++++++++++++++++++++++++++++++++......................................+++++++++++++++++++++++++++++++++++++++++",
"+++++++++++++++++++++++++++++++++++++++++......................................+++++++++++++++++++++++++++++++++++++++++",
"+++++++++++++++++++++++++++++++++++++++++......................................+++++++++++++++++++++++++++++++++++++++++",
"+++++++++++++++++++++++++++++++++++++++++......................................+++++++++++++++++++++++++++++++++++++++++",
"+++++++++++++++++++++++++++++++++++++..............$$$$$$$$$$$$$$$$$$..............+++++++++++++++++++++++++++++++++++++",
"+++++++++++++++++++++++++++++++++++++..............$$$$$$$$$$$$$$$$$$..............+++++++++++++++++++++++++++++++++++++",
"+++++++++++++++++++++++++++++++++++++..............$$$$$$$$$$$$$$$$$$..............+++++++++++++++++++++++++++++++++++++",
"+++++++++++++++++++++++++++++++++++++..............$$$$$$$$$$$$$$$$$$..............+++++++++++++++++++++++++++++++++++++",
"+++++++++++++++++++++++++++++++++++++..............$$$$$$$$$$$$$$$$$$..............+++++++++++++++++++++++++++++++++++++",
"++++++++++++++++++++++++++++++++.........OOOOOOOOOO$$$$$$$$$$$$$$$$$$OOOOOOOOOO.........++++++++++++++++++++++++++++++++",
"++++++++++++++++++++++++++++++++.........OOOOOOOOOO$$$$$$$$$$$$$$$$$$OOOOOOOOOO.........++++++++++++++++++++++++++++++++",
"++++++++++++++++++++++++++++++++.........OOOOOOOOOO$$$$$$$$$$$$$$$$$$OOOOOOOOOO.........++++++++++++++++++++++++++++++++",
"++++++++++++++++++++++++++++++++.........OOOOOOOOOO$$$$$$$$$$$$$$$$$$OOOOOOOOOO.........++++++++++++++++++++++++++++++++",
"+++++++++++++++++++++++++++..........OOOOOOOOOOOOOO$$$$$$$$$$$$$$$$$$OOOOOOOOOOOOOO..........+++++++++++++++++++++++++++",
"+++++++++++++++++++++++++++..........OOOOOOOOOOOOOO$$$$$$$$$$$$$$$$$$OOOOOOOOOOOOOO..........+++++++++++++++++++++++++++",
"+++++++++++++++++++++++++++..........OOOOOOOOOOOOOO$$$$$$$$$$$$$$$$$$OOOOOOOOOOOOOO..........+++++++++++++++++++++++++++",
"+++++++++++++++++++++++++++..........OOOOOOOOOOOOOO$$$$$$$$$$$$$$$$$$OOOOOOOOOOOOOO..........+++++++++++++++++++++++++++",
"+++++++++++++++++++++++++++..........OOOOOOOOOOOOOO$$$$$$$$$$$$$$$$$$OOOOOOOOOOOOOO..........+++++++++++++++++++++++++++",
"++++++++++++++++++++++..........$$$$$$$$$OOOOOOOOOO$$$$$$$$$$$$$$$$$$$$$$$OOOOOOOOOooooo.........+++++++++++++++++++++++",
"++++++++++++++++++++++..........$$$$$$$$$OOOOOOOOOO$$$$$$$$$$$$$$$$$$$$$$$OOOOOOOOOooooo.........+++++++++++++++++++++++",
"++++++++++++++++++++++..........$$$$$$$$$OOOOOOOOOO$$$$$$$$$$$$$$$$$$$$$$$OOOOOOOOOooooo.........+++++++++++++++++++++++",
"++++++++++++++++++++++..........$$$$$$$$$OOOOOOOOOO$$$$$$$$$$$$$$$$$$$$$$$OOOOOOOOOooooo.........+++++++++++++++++++++++",
"++++++++++++++++++++++..........$$$$$$$$$OOOOOOOOOO$$$$$$$$$$$$$$$$$$$$$$$OOOOOOOOOooooo.........+++++++++++++++++++++++",
"++++++++++++++++++.........OOOOO$$$$$$$$$OOOOO$$$$$$$$$$$$$$$$$$$$$$$$$$$$OOOOOOOOOoooooooooo.........++++++++++++++++++",
"++++++++++++++++++.........OOOOO$$$$$$$$$OOOOO$$$$$$$$$$$$$$$$$$$$$$$$$$$$OOOOOOOOOoooooooooo.........++++++++++++++++++",
"++++++++++++++++++.........OOOOO$$$$$$$$$OOOOO$$$$$$$$$$$$$$$$$$$$$$$$$$$$OOOOOOOOOoooooooooo.........++++++++++++++++++",
"++++++++++++++++++.........OOOOO$$$$$$$$$OOOOO$$$$$$$$$$$$$$$$$$$$$$$$$$$$OOOOOOOOOoooooooooo.........++++++++++++++++++",
"++++++++++++++++++.........OOOOO$$$$$$$$$OOOOO$$$$$$$$$$$$$$$$$$$$$$$$$$$$OOOOOOOOOoooooooooo.........++++++++++++++++++",
"++++++++++++++++++.........OOOOOOOOOOOOOOOOOOO$$$$$$$$$OOOOOOOOOOOOOOOOOOO$$$$$####oooooooooo.........++++++++++++++++++",
"++++++++++++++++++.........OOOOOOOOOOOOOOOOOOO$$$$$$$$$OOOOOOOOOOOOOOOOOOO$$$$$####oooooooooo.........++++++++++++++++++",
"++++++++++++++++++.........OOOOOOOOOOOOOOOOOOO$$$$$$$$$OOOOOOOOOOOOOOOOOOO$$$$$####oooooooooo.........++++++++++++++++++",
"++++++++++++++++++.........OOOOOOOOOOOOOOOOOOO$$$$$$$$$OOOOOOOOOOOOOOOOOOO$$$$$####oooooooooo.........++++++++++++++++++",
"+++++++++++++.........OOOOO$$$$$OOOOOOOOO$$$$$$$$$$$$$$OOOOOOOOOOOOOOOOOOOOOOOOoooo##############..........+++++++++++++",
"+++++++++++++.........OOOOO$$$$$OOOOOOOOO$$$$$$$$$$$$$$OOOOOOOOOOOOOOOOOOOOOOOOoooo##############..........+++++++++++++",
"+++++++++++++.........OOOOO$$$$$OOOOOOOOO$$$$$$$$$$$$$$OOOOOOOOOOOOOOOOOOOOOOOOoooo##############..........+++++++++++++",
"+++++++++++++.........OOOOO$$$$$OOOOOOOOO$$$$$$$$$$$$$$OOOOOOOOOOOOOOOOOOOOOOOOoooo##############..........+++++++++++++",
"+++++++++++++.........OOOOO$$$$$OOOOOOOOO$$$$$$$$$$$$$$OOOOOOOOOOOOOOOOOOOOOOOOoooo##############..........+++++++++++++",
"+++++++++++++.........OOOOOOOOOO$$$$$$$$$$$$$$$$$$$OOOOOOOOOOOOOOOOOOOOOOOOOOOOoooo##############..........+++++++++++++",
"+++++++++++++.........OOOOOOOOOO$$$$$$$$$$$$$$$$$$$OOOOOOOOOOOOOOOOOOOOOOOOOOOOoooo##############..........+++++++++++++",
"+++++++++++++.........OOOOOOOOOO$$$$$$$$$$$$$$$$$$$OOOOOOOOOOOOOOOOOOOOOOOOOOOOoooo##############..........+++++++++++++",
"+++++++++++++.........OOOOOOOOOO$$$$$$$$$$$$$$$$$$$OOOOOOOOOOOOOOOOOOOOOOOOOOOOoooo##############..........+++++++++++++",
"+++++++++++++.........OOOOOOOOOO$$$$$$$$$$$$$$$$$$$OOOOOOOOOOOOOOOOOOOOOOOOOOOOoooo##############..........+++++++++++++",
"+++++++++++++.........$$$$$$$$$$$$$$$$$$$$$$$$$$$$$OOOOOOOOOOOOOOOOOOOOOOOOOOOOooooooooo#########..........+++++++++++++",
"+++++++++++++.........$$$$$$$$$$$$$$$$$$$$$$$$$$$$$OOOOOOOOOOOOOOOOOOOOOOOOOOOOooooooooo#########..........+++++++++++++",
"+++++++++++++.........$$$$$$$$$$$$$$$$$$$$$$$$$$$$$OOOOOOOOOOOOOOOOOOOOOOOOOOOOooooooooo#########..........+++++++++++++",
"+++++++++++++.........$$$$$$$$$$$$$$$$$$$$$$$$$$$$$OOOOOOOOOOOOOOOOOOOOOOOOOOOOooooooooo#########..........+++++++++++++",
"++++++++..............$$$$$$$$$$$$$$$$$$$$$$$$$$$$$OOOOOOOOOOOOOOOOOOOOOOOOOOOOooooooooo#########...............++++++++",
"++++++++..............$$$$$$$$$$$$$$$$$$$$$$$$$$$$$OOOOOOOOOOOOOOOOOOOOOOOOOOOOooooooooo#########...............++++++++",
"++++++++..............$$$$$$$$$$$$$$$$$$$$$$$$$$$$$OOOOOOOOOOOOOOOOOOOOOOOOOOOOooooooooo#########...............++++++++",
"++++++++..............$$$$$$$$$$$$$$$$$$$$$$$$$$$$$OOOOOOOOOOOOOOOOOOOOOOOOOOOOooooooooo#########...............++++++++",
"++++++++..............$$$$$$$$$$$$$$$$$$$$$$$$$$$$$OOOOOOOOOOOOOOOOOOOOOOOOOOOOooooooooo#########...............++++++++",
"++++++++..........$$$$$$$$$$$$$$$$$$$$$$$$$$$$$$$$$OOOOOOOOOOOOOOOOOOOOOOOoooooooooooooo#####@@@@@@@@@..........++++++++",
"++++++++..........$$$$$$$$$$$$$$$$$$$$$$$$$$$$$$$$$OOOOOOOOOOOOOOOOOOOOOOOoooooooooooooo#####@@@@@@@@@..........++++++++",
"++++++++..........$$$$$$$$$$$$$$$$$$$$$$$$$$$$$$$$$OOOOOOOOOOOOOOOOOOOOOOOoooooooooooooo#####@@@@@@@@@..........++++++++",
"++++++++..........$$$$$$$$$$$$$$$$$$$$$$$$$$$$$$$$$OOOOOOOOOOOOOOOOOOOOOOOoooooooooooooo#####@@@@@@@@@..........++++++++",
"++++++++..........$$$$$$$$$$$$$$$$$$$$$$$$$$$$$$$$$OOOOOOOOOOOOOOOOOOOOOOOoooooooooooooo#####@@@@@@@@@..........++++++++",
"++++++++..........$$$$$$$$$$$$$$$$$$$$$$$$$$$$$$$$$$$$$OOOOOOOOOOOOOOOOOOOooooooooo##########@@@@@@@@@..........++++++++",
"++++++++..........$$$$$$$$$$$$$$$$$$$$$$$$$$$$$$$$$$$$$OOOOOOOOOOOOOOOOOOOooooooooo##########@@@@@@@@@..........++++++++",
"++++++++..........$$$$$$$$$$$$$$$$$$$$$$$$$$$$$$$$$$$$$OOOOOOOOOOOOOOOOOOOooooooooo##########@@@@@@@@@..........++++++++",
"++++++++..........$$$$$$$$$$$$$$$$$$$$$$$$$$$$$$$$$$$$$OOOOOOOOOOOOOOOOOOOooooooooo##########@@@@@@@@@..........++++++++",
"++++++++..........$$$$$$$$$$$$$$$$$$$$$$$$$$$$$$$$$$$$$OOOOOOOOOOOOOOoooooooooooooo##########@@@@XXXXX..........++++++++",
"++++++++..........$$$$$$$$$$$$$$$$$$$$$$$$$$$$$$$$$$$$$OOOOOOOOOOOOOOoooooooooooooo##########@@@@XXXXX..........++++++++",
"++++++++..........$$$$$$$$$$$$$$$$$$$$$$$$$$$$$$$$$$$$$OOOOOOOOOOOOOOoooooooooooooo##########@@@@XXXXX..........++++++++",
"++++++++..........$$$$$$$$$$$$$$$$$$$$$$$$$$$$$$$$$$$$$OOOOOOOOOOOOOOoooooooooooooo##########@@@@XXXXX..........++++++++",
"++++++++..........$$$$$$$$$$$$$$$$$$$$$$$$$$$$$$$$$$$$$OOOOOOOOOOOOOOoooooooooooooo##########@@@@XXXXX..........++++++++",
"++++++++..........$$$$$$$$$$$$$$$$$$$$$$$$$$$$$$$$$$$$$$$$$$oooooooooooooo##############@@@@@XXXXXXXXX..........++++++++",
"++++++++..........$$$$$$$$$$$$$$$$$$$$$$$$$$$$$$$$$$$$$$$$$$oooooooooooooo##############@@@@@XXXXXXXXX..........++++++++",
"++++++++..........$$$$$$$$$$$$$$$$$$$$$$$$$$$$$$$$$$$$$$$$$$oooooooooooooo##############@@@@@XXXXXXXXX..........++++++++",
"++++++++..........$$$$$$$$$$$$$$$$$$$$$$$$$$$$$$$$$$$$$$$$$$oooooooooooooo##############@@@@@XXXXXXXXX..........++++++++",
"++++++++..........$$$$$$$$$$$$$$$$$$$$$$$$$$$$$$$$$$$$$$$$$$oooooooooooooo##############@@@@@XXXXXXXXX..........++++++++",
"++++++++..............oooooOOOOO$$$$$$$$$$$$$$$$$$$#####################################XXXXXXXXX...............++++++++",
"++++++++..............oooooOOOOO$$$$$$$$$$$$$$$$$$$#####################################XXXXXXXXX...............++++++++",
"++++++++..............oooooOOOOO$$$$$$$$$$$$$$$$$$$#####################################XXXXXXXXX...............++++++++",
"++++++++..............oooooOOOOO$$$$$$$$$$$$$$$$$$$#####################################XXXXXXXXX...............++++++++",
"+++++++++++++.........ooooooooooooooooooo######################################@@@@@@@@@XXXXXXXXX..........+++++++++++++",
"+++++++++++++.........ooooooooooooooooooo######################################@@@@@@@@@XXXXXXXXX..........+++++++++++++",
"+++++++++++++.........ooooooooooooooooooo######################################@@@@@@@@@XXXXXXXXX..........+++++++++++++",
"+++++++++++++.........ooooooooooooooooooo######################################@@@@@@@@@XXXXXXXXX..........+++++++++++++",
"+++++++++++++.........ooooooooooooooooooo######################################@@@@@@@@@XXXXXXXXX..........+++++++++++++",
"+++++++++++++..............XXXXXoooooooooooooo#######################@@@@@@@@@@@@@@XXXXXXXXXX..............+++++++++++++",
"+++++++++++++..............XXXXXoooooooooooooo#######################@@@@@@@@@@@@@@XXXXXXXXXX..............+++++++++++++",
"+++++++++++++..............XXXXXoooooooooooooo#######################@@@@@@@@@@@@@@XXXXXXXXXX..............+++++++++++++",
"+++++++++++++..............XXXXXoooooooooooooo#######################@@@@@@@@@@@@@@XXXXXXXXXX..............+++++++++++++",
"+++++++++++++..............XXXXXoooooooooooooo#######################@@@@@@@@@@@@@@XXXXXXXXXX..............+++++++++++++",
"++++++++++++++++++..............XXXXXXXXXXXXXX@@@@@@@@@@@@@@@@@@@@@@@@@@@@@@@@@@@@@XXXXX..............++++++++++++++++++",
"++++++++++++++++++..............XXXXXXXXXXXXXX@@@@@@@@@@@@@@@@@@@@@@@@@@@@@@@@@@@@@XXXXX..............++++++++++++++++++",
"++++++++++++++++++..............XXXXXXXXXXXXXX@@@@@@@@@@@@@@@@@@@@@@@@@@@@@@@@@@@@@XXXXX..............++++++++++++++++++",
"++++++++++++++++++..............XXXXXXXXXXXXXX@@@@@@@@@@@@@@@@@@@@@@@@@@@@@@@@@@@@@XXXXX..............++++++++++++++++++",
"++++++++++++++++++++++...............XXXXXXXXXXXXXX@@@@@@@@@@@@@@@@@@@@@@@@@@@@++++..............+++++++++++++++++++++++",
"++++++++++++++++++++++...............XXXXXXXXXXXXXX@@@@@@@@@@@@@@@@@@@@@@@@@@@@++++..............+++++++++++++++++++++++",
"++++++++++++++++++++++...............XXXXXXXXXXXXXX@@@@@@@@@@@@@@@@@@@@@@@@@@@@++++..............+++++++++++++++++++++++",
"++++++++++++++++++++++...............XXXXXXXXXXXXXX@@@@@@@@@@@@@@@@@@@@@@@@@@@@++++..............+++++++++++++++++++++++",
"++++++++++++++++++++++...............XXXXXXXXXXXXXX@@@@@@@@@@@@@@@@@@@@@@@@@@@@++++..............+++++++++++++++++++++++",
"+++++++++++++++++++++++++++...................XXXXX+++++++++++++++++++++++...................+++++++++++++++++++++++++++",
"+++++++++++++++++++++++++++...................XXXXX+++++++++++++++++++++++...................+++++++++++++++++++++++++++",
"+++++++++++++++++++++++++++...................XXXXX+++++++++++++++++++++++...................+++++++++++++++++++++++++++",
"+++++++++++++++++++++++++++...................XXXXX+++++++++++++++++++++++...................+++++++++++++++++++++++++++",
"+++++++++++++++++++++++++++...................XXXXX+++++++++++++++++++++++...................+++++++++++++++++++++++++++",
"++++++++++++++++++++++++++++++++...................................................+++++++++++++++++++++++++++++++++++++",
"++++++++++++++++++++++++++++++++...................................................+++++++++++++++++++++++++++++++++++++",
"++++++++++++++++++++++++++++++++...................................................+++++++++++++++++++++++++++++++++++++",
"++++++++++++++++++++++++++++++++...................................................+++++++++++++++++++++++++++++++++++++",
"++++++++++++++++++++++++++++++++...................................................+++++++++++++++++++++++++++++++++++++",
"++++++++++++++++++++++++++++++++++++++++++++++............................++++++++++++++++++++++++++++++++++++++++++++++",
"++++++++++++++++++++++++++++++++++++++++++++++............................++++++++++++++++++++++++++++++++++++++++++++++",
"++++++++++++++++++++++++++++++++++++++++++++++............................++++++++++++++++++++++++++++++++++++++++++++++",
"++++++++++++++++++++++++++++++++++++++++++++++............................++++++++++++++++++++++++++++++++++++++++++++++",
"++++++++++++++++++++++++++++++++++++++++++++++++++++++++++++++++++++++++++++++++++++++++++++++++++++++++++++++++++++++++",
"++++++++++++++++++++++++++++++++++++++++++++++++++++++++++++++++++++++++++++++++++++++++++++++++++++++++++++++++++++++++",
"++++++++++++++++++++++++++++++++++++++++++++++++++++++++++++++++++++++++++++++++++++++++++++++++++++++++++++++++++++++++",
"++++++++++++++++++++++++++++++++++++++++++++++++++++++++++++++++++++++++++++++++++++++++++++++++++++++++++++++++++++++++"
};
