/* XPM */
static char * Untitled_xpm[] = {
"120 120 2 1",
" 	c #77C465",
".	c #29571E",
"                                                                                                                        ",
"                                                                                                                        ",
"                                                                                                                        ",
"                                                                                                                        ",
"                                                                                                                        ",
"                                                                                                                        ",
"                                                                                                                        ",
"                                                                                                                        ",
"                                                                                                                        ",
"                                                                                                                        ",
"                                                                                                                        ",
"                                                                                                                        ",
"                                                                                                                        ",
"                                                                                                                        ",
"                                                                                                                        ",
"                                                                                                                        ",
"                                                                                                                        ",
"                                                                                                                        ",
"                                                                                                                        ",
"                                                                                                                        ",
"                                                                                                                        ",
"                                                                                                                        ",
"                                                                                                                        ",
"                                                                                                                        ",
"                                                                                                                        ",
"                                                                                                                        ",
"                                                                                                                        ",
"                                                                                                                        ",
"                                                                                                                        ",
"                                                                                                                        ",
"                                                                                                                        ",
"                                                                                                                        ",
"                                                                                                                        ",
"                                                                                                                        ",
"                                                                                                                        ",
"                                                                                                                        ",
"                                                                                                                        ",
"                                                                                                                        ",
"                                              ......                                                                    ",
"                                             ..................                                                         ",
"                                             ...........................                                                ",
"                                             ...........................                                                ",
"                                             ...........................                                                ",
"                                             ...........................                                                ",
"                                              ......       .............                                                ",
"                                              ......                                                                    ",
"                                               .....                                                                    ",
"                                               .....                                                                    ",
"                                               ......                                                                   ",
"                                               ......                                                                   ",
"                                               ......                                                                   ",
"                                               ......                                                                   ",
"                                                .....                                                                   ",
"                                                .....                                                                   ",
"                                                .....                                                                   ",
"                                                .....                                                                   ",
"                                                .......                                                                 ",
"                                                .............                                                           ",
"                                                ..................                                                      ",
"                                               ...................                                                      ",
"                                               ...................                                                      ",
"                                               ...................                                                      ",
"                                               ......   ..........                                                      ",
"                                               ......                                                                   ",
"                                               .....                                                                    ",
"                                               .....                                                                    ",
"                                               .....                                                                    ",
"                                               .....                                                                    ",
"                                               .....                                                                    ",
"                                               .....                                                                    ",
"                                               .....                                                                    ",
"                                               .....                                                                    ",
"                                               .....                                                                    ",
"                                               .....                                                                    ",
"                                               .....                                                                    ",
"                                               .....                                                                    ",
"                                               .....                                                                    ",
"                                               .....                                                                    ",
"                                               ........  ........                                                       ",
"                                               .......................                                                  ",
"                                               .......................                                                  ",
"                                               .......................                                                  ",
"                                               .......................                                                  ",
"                                                   ...................                                                  ",
"                                                                                                                        ",
"                                                                                                                        ",
"                                                                                                                        ",
"                                                                                                                        ",
"                                                                                                                        ",
"                                                                                                                        ",
"                                                                                                                        ",
"                                                                                                                        ",
"                                                                                                                        ",
"                                                                                                                        ",
"                                                                                                                        ",
"                                                                                                                        ",
"                                                                                                                        ",
"                                                                                                                        ",
"                                                                                                                        ",
"                                                                                                                        ",
"                                                                                                                        ",
"                                                                                                                        ",
"                                                                                                                        ",
"                                                                                                                        ",
"                                                                                                                        ",
"                                                                                                                        ",
"                                                                                                                        ",
"                                                                                                                        ",
"                                                                                                                        ",
"                                                                                                                        ",
"                                                                                                                        ",
"                                                                                                                        ",
"                                                                                                                        ",
"                                                                                                                        ",
"                                                                                                                        ",
"                                                                                                                        ",
"                                                                                                                        ",
"                                                                                                                        ",
"                                                                                                                        ",
"                                                                                                                        "};
