/* XPM */
static char * start_xpm[] = {
"120 120 2 1",
" 	c #77C465",
".	c #29571E",
"                                                                                                                        ",
"                                                                                                                        ",
"                                                                                                                        ",
"                                                                                                                        ",
"                                                                                                                        ",
"                                                                                                                        ",
"                                                                                                                        ",
"                                                                                                                        ",
"                                                                                                                        ",
"                                                                                                                        ",
"                                                                                                                        ",
"                                                                                                                        ",
"                                                                                                                        ",
"                                                                                                                        ",
"                                                                                                                        ",
"                                                                                                                        ",
"                                                                                                                        ",
"                                                                                                                        ",
"                                                                                                                        ",
"                                                                                                                        ",
"                                                                                                                        ",
"                                                                                                                        ",
"                                                                                                                        ",
"                                                                                                                        ",
"                                                                                                                        ",
"                                                                                                                        ",
"                                                                                                                        ",
"                                                                                                                        ",
"                                                                                                                        ",
"                                                                                                                        ",
"                                                       .......                                                          ",
"                                                     ............                                                       ",
"                                                    .............                                                       ",
"                                                   ..............                                                       ",
"                                                  ...............                                                       ",
"                                                 ................                                                       ",
"                                                .........   .....                                                       ",
"                                                ........                                                                ",
"                                                .......                                                                 ",
"                                               .......                                                                  ",
"                                               ......                                                                   ",
"                                               ......                                                                   ",
"                                               ......                                                                   ",
"                                               ......                                                                   ",
"                                               ......                                                                   ",
"                                               ......                                                                   ",
"                                               .......                                                                  ",
"                                               ........                                                                 ",
"                                                ........                                                                ",
"                                                ..........                                                              ",
"                                                 ..........                                                             ",
"                                                  ..........                                                            ",
"                                                   ..........                                                           ",
"                                                    ..........                                                          ",
"                                                     ..........                                                         ",
"                                                      .........                                                         ",
"                                                        ........                                                        ",
"                                                         .......                                                        ",
"                                                          ......                                                        ",
"                                                          .......                                                       ",
"                                                          .......                                                       ",
"                                                           ......                                                       ",
"                                                           .......                                                      ",
"                                                            ......                                                      ",
"                                                            ......                                                      ",
"                                                            ......                                                      ",
"                                                             .....                                                      ",
"                                                             .....                                                      ",
"                                                             .....                                                      ",
"                                                             .....                                                      ",
"                                                             .....                                                      ",
"                                                             .....                                                      ",
"                                              .....          .....                                                      ",
"                                              .......       ......                                                      ",
"                                              .........     ......                                                      ",
"                                              ..........   .......                                                      ",
"                                              ....................                                                      ",
"                                               ..................                                                       ",
"                                                 ................                                                       ",
"                                                  ..............                                                        ",
"                                                    ............                                                        ",
"                                                     ........                                                           ",
"                                                                                                                        ",
"                                                                                                                        ",
"                                                                                                                        ",
"                                                                                                                        ",
"                                                                                                                        ",
"                                                                                                                        ",
"                                                                                                                        ",
"                                                                                                                        ",
"                                                                                                                        ",
"                                                                                                                        ",
"                                                                                                                        ",
"                                                                                                                        ",
"                                                                                                                        ",
"                                                                                                                        ",
"                                                                                                                        ",
"                                                                                                                        ",
"                                                                                                                        ",
"                                                                                                                        ",
"                                                                                                                        ",
"                                                                                                                        ",
"                                                                                                                        ",
"                                                                                                                        ",
"                                                                                                                        ",
"                                                                                                                        ",
"                                                                                                                        ",
"                                                                                                                        ",
"                                                                                                                        ",
"                                                                                                                        ",
"                                                                                                                        ",
"                                                                                                                        ",
"                                                                                                                        ",
"                                                                                                                        ",
"                                                                                                                        ",
"                                                                                                                        ",
"                                                                                                                        ",
"                                                                                                                        ",
"                                                                                                                        ",
"                                                                                                                        "};
