/* XPM */
static char * yoshi_xpm[] = {
"120 120 10 1",
" 	c #77C465",
".	c #000000",
"+	c #2BD600",
"@	c #FFFFFF",
"#	c #FF0303",
"$	c #C70000",
"%	c #02B30E",
"&	c #028F0B",
"*	c #EBBFBF",
"=	c #CC9191",
"                                                                                                                        ",
"                                                                                                                        ",
"                                                                                                                        ",
"                                                                                                                        ",
"                                                                                                                        ",
"                                                                                                                        ",
"                                                                                                                        ",
"                                                                                                                        ",
"                                                                                                                        ",
"                                                                                                                        ",
"                                                            ......    ......                                            ",
"                                                            ......    ......                                            ",
"                                                            ......    ......                                            ",
"                                                        ....++++++....++++++....                                        ",
"                                                        ....++++++....++++++....                                        ",
"                                                        ....++++++....++++++....                                        ",
"                                                     .......+++@@@@@@@@@@@@@@@@@...                                     ",
"                                                     .......+++@@@@@@@@@@@@@@@@@...                                     ",
"                                                     .......+++@@@@@@@@@@@@@@@@@...                                     ",
"                                                     .......+++@@@@@@@@@@@@@@@@@...                                     ",
"                                           .................@@@@@@....@@@...@@@@...                                     ",
"                                           .................@@@@@@....@@@...@@@@...                                     ",
"                                           .................@@@@@@....@@@...@@@@...                                     ",
"                                        ...##########...@@@@@@@@@@....@@@...@@@@...                                     ",
"                                        ...##########...@@@@@@@@@@....@@@...@@@@...                                     ",
"                                        ...##########...@@@@@@@@@@....@@@...@@@@...                                     ",
"                                        ...##########...@@@@@@@@@@....@@@...@@@@...                                     ",
"                                        ...$$$####......@@@@@@@@@@@@@@@@@@@@@@@@..........                              ",
"                                        ...$$$####......@@@@@@@@@@@@@@@@@@@@@@@@..........                              ",
"                                        ...$$$####......@@@@@@@@@@@@@@@@@@@@@@@@..........                              ",
"                                        ..........+++@@@....@@@@@@@@@@...@@@....++++++++++...                           ",
"                                        ..........+++@@@....@@@@@@@@@@...@@@....++++++++++...                           ",
"                                        ..........+++@@@....@@@@@@@@@@...@@@....++++++++++...                           ",
"                                    ....###...%%%%++++++++++..........+++...++++@@@@@@+++++++...                        ",
"                                    ....###...%%%%++++++++++..........+++...++++@@@@@@+++++++...                        ",
"                                    ....###...%%%%++++++++++..........+++...++++@@@@@@+++++++...                        ",
"                                    ....###...%%%%++++++++++..........+++...++++@@@@@@+++++++...                        ",
"                                 ...$$$$###...%%%%++++++@@@@@@@@@@++++%%%++++++++++...++++...+++....                    ",
"                                 ...$$$$###...%%%%++++++@@@@@@@@@@++++%%%++++++++++...++++...+++....                    ",
"                                 ...$$$$###...%%%%++++++@@@@@@@@@@++++%%%++++++++++...++++...+++....                    ",
"                                 ...$$$$$$$...&&&&+++@@@@@@@@@@@@@%%%%%%%+++++++++++++++++++++++....                    ",
"                                 ...$$$$$$$...&&&&+++@@@@@@@@@@@@@%%%%%%%+++++++++++++++++++++++....                    ",
"                                 ...$$$$$$$...&&&&+++@@@@@@@@@@@@@%%%%%%%+++++++++++++++++++++++....                    ",
"                                    ..........&&&&+++@@@@@@@@@@@@@@@@@...%%%++++++++++++++++++++....                    ",
"                                    ..........&&&&+++@@@@@@@@@@@@@@@@@...%%%++++++++++++++++++++....                    ",
"                                    ..........&&&&+++@@@@@@@@@@@@@@@@@...%%%++++++++++++++++++++....                    ",
"                                    ..........&&&&+++@@@@@@@@@@@@@@@@@...%%%++++++++++++++++++++....                    ",
"                                        ......%%%%%%%%%%****@@@@@@****...&&&%%%%++++++++++++++++....                    ",
"                                        ......%%%%%%%%%%****@@@@@@****...&&&%%%%++++++++++++++++....                    ",
"                                        ......%%%%%%%%%%****@@@@@@****...&&&%%%%++++++++++++++++....                    ",
"                                        ...###....%%%%%%%%%%******.......&&&&&&&%%%%%%+++++++%%%....                    ",
"                                        ...###....%%%%%%%%%%******.......&&&&&&&%%%%%%+++++++%%%....                    ",
"                                        ...###....%%%%%%%%%%******.......&&&&&&&%%%%%%+++++++%%%....                    ",
"                                           ..........%%%%%%%%%%*******...&&&&&&&%%%%%%%%%%%%%...                        ",
"                                           ..........%%%%%%%%%%*******...&&&&&&&%%%%%%%%%%%%%...                        ",
"                                           ..........%%%%%%%%%%*******...&&&&&&&%%%%%%%%%%%%%...                        ",
"                                           ..........%%%%%%%%%%*******...&&&&&&&%%%%%%%%%%%%%...                        ",
"                                           ...####...%%%+++++++===****@@@...&&&&&&&&&&.......                           ",
"                                           ...####...%%%+++++++===****@@@...&&&&&&&&&&.......                           ",
"                                           ...####...%%%+++++++===****@@@...&&&&&&&&&&.......                           ",
"                                    ..............%%%++++++++++=======................                                  ",
"                                    ..............%%%++++++++++=======................                                  ",
"                                    ..............%%%++++++++++=======................                                  ",
"                                 ...#######.......%%%+++++++@@@@@@@@@@..........                                        ",
"                                 ...#######.......%%%+++++++@@@@@@@@@@..........                                        ",
"                                 ...#######.......%%%+++++++@@@@@@@@@@..........                                        ",
"                                 ...#######.......%%%+++++++@@@@@@@@@@..........                                        ",
"                          .......#######...+++++++++++++++++@@@@@@@@@@...@@@++++...                                     ",
"                          .......#######...+++++++++++++++++@@@@@@@@@@...@@@++++...                                     ",
"                          .......#######...+++++++++++++++++@@@@@@@@@@...@@@++++...                                     ",
"                    ..........++++++....+++++++++++++...@@@@@@@@@@@@@@......@@@@+++...                                  ",
"                    ..........++++++....+++++++++++++...@@@@@@@@@@@@@@......@@@@+++...                                  ",
"                    ..........++++++....+++++++++++++...@@@@@@@@@@@@@@......@@@@+++...                                  ",
"                    ...+++++++......++++++++++++++...@@@@@@@@@@@@@@@@@..........+++...                                  ",
"                    ...+++++++......++++++++++++++...@@@@@@@@@@@@@@@@@..........+++...                                  ",
"                    ...+++++++......++++++++++++++...@@@@@@@@@@@@@@@@@..........+++...                                  ",
"                    ...+++++++......++++++++++++++...@@@@@@@@@@@@@@@@@..........+++...                                  ",
"                    ...@@@%%%%...++++++++++@@@@@@@+++...@@@@@@@@@@@@@@......+++++++...                                  ",
"                    ...@@@%%%%...++++++++++@@@@@@@+++...@@@@@@@@@@@@@@......+++++++...                                  ",
"                    ...@@@%%%%...++++++++++@@@@@@@+++...@@@@@@@@@@@@@@......+++++++...                                  ",
"                    ...@@@@@@@...++++++++++@@@@@@@......@@@@@@@@@@.......++++++++++...                                  ",
"                    ...@@@@@@@...++++++++++@@@@@@@......@@@@@@@@@@.......++++++++++...                                  ",
"                    ...@@@@@@@...++++++++++@@@@@@@......@@@@@@@@@@.......++++++++++...                                  ",
"                       ...@@@@...%%%+++++++++++++++++...@@@@@@@@@@.......%%%%%%%%%%...                                  ",
"                       ...@@@@...%%%+++++++++++++++++...@@@@@@@@@@.......%%%%%%%%%%...                                  ",
"                       ...@@@@...%%%+++++++++++++++++...@@@@@@@@@@.......%%%%%%%%%%...                                  ",
"                       ...@@@@...%%%+++++++++++++++++...@@@@@@@@@@.......%%%%%%%%%%...                                  ",
"                       ...@@@@@@@...%%%%++++++++++...@@@@@@@@@@....................                                     ",
"                       ...@@@@@@@...%%%%++++++++++...@@@@@@@@@@....................                                     ",
"                       ...@@@@@@@...%%%%++++++++++...@@@@@@@@@@....................                                     ",
"                          ........................@@@@@@@@@@@@@...                                                      ",
"                          ........................@@@@@@@@@@@@@...                                                      ",
"                          ........................@@@@@@@@@@@@@...                                                      ",
"                          ....$$$##########...@@@@@@@..........                                                         ",
"                          ....$$$##########...@@@@@@@..........                                                         ",
"                          ....$$$##########...@@@@@@@..........                                                         ",
"                          ....$$$##########...@@@@@@@..........                                                         ",
"                          ....$$$##########..........###..........                                                      ",
"                          ....$$$##########..........###..........                                                      ",
"                          ....$$$##########..........###..........                                                      ",
"                       ...$$$$$$$$$$####@@@###....$$$##########@@@....                                                  ",
"                       ...$$$$$$$$$$####@@@###....$$$##########@@@....                                                  ",
"                       ...$$$$$$$$$$####@@@###....$$$##########@@@....                                                  ",
"                       ...$$$$$$$#############....$$$$$$##########....                                                  ",
"                       ...$$$$$$$#############....$$$$$$##########....                                                  ",
"                       ...$$$$$$$#############....$$$$$$##########....                                                  ",
"                       ...$$$$$$$#############....$$$$$$##########....                                                  ",
"                       ...............................................                                                  ",
"                       ...............................................                                                  ",
"                       ...............................................                                                  ",
"                                                                                                                        ",
"                                                                                                                        ",
"                                                                                                                        ",
"                                                                                                                        ",
"                                                                                                                        ",
"                                                                                                                        ",
"                                                                                                                        ",
"                                                                                                                        ",
"                                                                                                                        ",
"                                                                                                                        "};
